<svg width="200" height="148" viewBox="0 0 200 148" fill="none" xmlns="http://www.w3.org/2000/svg">
<path d="M92.735 0.127937C68.922 1.94788 47.7492 11.5602 31.1903 28.0678C28.9859 30.2467 26.5508 32.7843 25.7818 33.7071C22.5264 37.552 17.8099 44.3704 15.5286 48.5742C13.4267 52.4448 12.9909 53.3163 11.5299 56.5717C5.37794 70.311 2.32762 84.2809 2.17382 99.2762L2.12256 104.839L44.6733 104.787C68.0761 104.736 87.3521 104.71 87.4803 104.685C87.6341 104.685 86.173 104.352 84.2762 103.967C65.1796 99.9939 52.0555 90.8173 44.827 76.3603C44.135 74.9761 42.4432 71.2594 41.0846 68.1065C39.7517 64.9537 37.1372 59.3913 35.3172 55.7514C30.652 46.421 28.9859 42.371 29.2166 40.8587C29.2679 40.346 29.5498 40.1922 30.9596 39.8334C36.3169 38.5005 44.0581 38.8081 51.2866 40.6536C56.6438 42.0122 62.2318 44.1653 67.4866 46.8824C71.6135 49.01 74.023 50.5479 77.0733 52.9831C78.278 53.9571 79.329 54.7261 79.4315 54.7261C79.5341 54.7261 79.6879 54.4185 79.7904 54.0084C79.8673 53.6239 81.9179 47.6514 84.3274 40.7562C86.7113 33.8353 90.0948 24.0947 91.8379 19.0963C96.5287 5.51086 96.1955 6.25421 97.6309 6.76687C100.245 7.66402 105.962 12.7906 109.191 17.1226C111.421 20.1473 113.703 24.146 115.395 28.0678C118.24 34.7068 119.983 41.1407 121.059 49.215C121.316 51.035 121.546 52.5986 121.598 52.6498C121.854 52.9574 134.927 48.2922 145.539 44.0884C155.664 40.0897 163.508 37.4751 166.302 37.1163C168.173 36.8856 168.224 37.0394 168.198 42.7812C168.198 47.9334 167.891 50.3172 166.66 55.3669C164.507 64.1847 159.97 73.31 154.152 80.5385C151.973 83.23 147.743 87.4594 145.154 89.5613C136.696 96.3797 125.622 101.327 113.523 103.711C111.319 104.121 109.191 104.557 108.756 104.685C108.345 104.787 127.673 104.864 151.768 104.864L195.523 104.839L195.549 103.172C195.805 87.2287 193.703 75.0274 188.423 61.647C182.835 47.4464 173.991 34.3736 163.738 25.0944C159.381 21.1726 156.971 19.3014 151.998 16.0204C139.438 7.68965 123.905 2.15294 108.499 0.538063C103.783 0.051033 96.4262 -0.15403 92.735 0.127937Z" fill="black"/>
<path d="M91.6584 37.5008L84.3018 59.4682L85.6603 60.878C89.7103 65.0562 93.2733 70.9774 95.8879 77.8983L96.7337 80.1796L97.3233 77.8983C99.2458 70.5673 102.014 65.6201 106.807 61.0574C108.909 59.0581 112.447 56.546 114.446 55.6489C115.036 55.3926 115.574 55.0337 115.651 54.8543C115.805 54.4185 115.189 49.5226 114.523 45.934C112.601 35.7577 109.345 27.914 104.167 21.0188C102.681 19.045 99.4765 15.5077 99.1689 15.5077C99.092 15.5077 95.7084 25.402 91.6584 37.5008Z" fill="black"/>
<path d="M156.305 46.1134C152.998 47.2925 147.513 49.3175 144.129 50.6248C133.825 54.5723 125.212 57.597 122.674 58.1609L121.957 58.3147V61.929C121.957 70.6698 120.137 78.8467 116.548 86.1265C114.831 89.6382 112.678 92.7398 109.781 95.9182L107.756 98.097L109.678 97.9176C134.132 95.6619 154.844 78.2059 160.791 54.8799C161.97 50.1891 162.995 43.9603 162.559 43.9603C162.431 43.9859 159.611 44.9343 156.305 46.1134Z" fill="black"/>
<path d="M36.5989 44.3448C36.5989 44.396 37.5986 46.5492 38.8033 49.1381C40.0081 51.7271 42.5714 57.2894 44.4682 61.5188C49.441 72.541 50.7739 75.2068 53.0809 78.6417C57.8486 85.7932 63.898 90.6891 71.998 93.9958C76.8426 95.9695 82.7894 97.3537 87.9929 97.7126L90.2999 97.8664L89.5309 97.2768C89.1208 96.9436 88.0186 95.9695 87.147 95.1236C79.5597 87.8439 75.8686 78.3853 76.4325 67.6707C76.535 65.8252 76.7657 63.5182 76.9451 62.5442L77.304 60.7499L76.2274 59.7502C74.4331 58.084 70.3831 55.1362 67.7173 53.5726C60.8989 49.5483 53.8242 46.8055 46.3394 45.2419C43.0584 44.5755 36.5989 43.9603 36.5989 44.3448Z" fill="black"/>
<path d="M113.754 62.8774C110.37 65.2869 107.166 69.1831 105.09 73.3356C104.116 75.2837 102.911 79.2568 102.45 82.1534C102.065 84.4347 101.963 92.6629 102.296 93.5088C102.45 93.9189 102.757 93.7395 104.577 92.0989C107.551 89.4331 109.678 86.6391 111.447 83.0505C113.241 79.4363 114.062 76.9755 114.779 73.2331C115.574 69.0037 116.112 61.6214 115.625 61.6726C115.497 61.6726 114.677 62.2366 113.754 62.8774Z" fill="black"/>
<path d="M82.0974 67.8758C81.7898 70.234 82.0974 74.6173 82.7125 76.9755C83.6866 80.6923 85.6347 84.5116 88.0698 87.485C89.0183 88.6129 93.2221 92.2527 93.4015 92.0733C93.5297 91.9451 92.8632 88.3053 92.248 85.7163C91.2227 81.3844 89.2746 76.4116 87.4034 73.31C86.5831 71.9258 84.5325 69.1318 82.9176 67.1581L82.2768 66.3891L82.0974 67.8758Z" fill="black"/>
<path d="M73.049 114.707C67.9481 116.04 64.4363 119.68 62.9496 125.14C62.2832 127.703 62.2063 133.342 62.8215 136.162C64.0262 141.724 67.8712 145.621 73.5104 147.03C75.6123 147.569 81.8924 147.492 83.9943 146.902C88.2237 145.749 90.9664 143.314 92.2481 139.622C92.5044 138.853 92.7351 137.931 92.7351 137.597V137.008H88.762H84.7889L84.3788 138.033C82.9177 141.699 77.1759 142.852 74.0231 140.161C71.8443 138.29 70.8958 135.419 70.8958 130.728C70.8958 127.293 71.2291 125.576 72.2544 123.499C73.5104 120.936 75.2534 119.834 78.0987 119.834C80.4057 119.834 81.6873 120.321 83.0459 121.654C83.8148 122.423 84.3531 123.217 84.5326 123.909L84.8145 124.96H88.7876H92.7607L92.5813 123.986C91.7354 119.244 88.1468 115.784 82.8152 114.605C80.2262 114.015 75.4841 114.066 73.049 114.707Z" fill="black"/>
<path d="M16.5027 114.964L11.6581 115.092L9.29985 121.372C3.86567 135.906 3.12231 137.828 1.68687 141.622C0.840981 143.801 0.0976259 145.826 0.020727 146.108C-0.0818048 146.595 0.04636 146.62 4.01947 146.62H8.14637L9.06916 143.801C9.58182 142.237 10.1201 140.827 10.2739 140.648C10.4533 140.417 11.94 140.34 16.6565 140.391L22.7828 140.468L23.8337 143.544C24.3977 145.236 24.8847 146.62 24.9103 146.62C24.936 146.62 26.8584 146.569 29.2167 146.492L33.4974 146.364L30.9597 139.571C24.0388 121.167 21.7062 115.117 21.5268 114.964C21.4242 114.887 19.1685 114.887 16.5027 114.964ZM17.7587 124.832C18.297 126.652 19.1685 129.472 19.7068 131.087C20.2708 132.702 20.6552 134.06 20.604 134.111C20.5527 134.163 18.6815 134.163 16.4002 134.137L12.2989 134.06L13.5293 130.215C14.2214 128.088 15.1442 125.165 15.5799 123.73C16.0413 122.269 16.4771 121.167 16.5796 121.295C16.6821 121.397 17.2204 122.987 17.7587 124.832Z" fill="black"/>
<path d="M183.117 114.964L178.272 115.092L177.196 117.911C176.606 119.449 175.196 123.217 174.043 126.242C171.48 133.009 166.661 145.697 166.455 146.236C166.302 146.569 166.814 146.62 170.3 146.62H174.325L175.401 143.544L176.504 140.468H182.835H189.166L190.243 143.493L191.319 146.518L195.728 146.569C199.573 146.62 200.112 146.569 199.983 146.236C199.906 146.031 197.241 138.93 194.062 130.471C190.909 122.013 188.218 115.04 188.141 114.964C188.038 114.887 185.783 114.887 183.117 114.964ZM183.348 122.32C183.578 123.14 184.501 126.088 185.398 128.857C186.321 131.651 187.064 133.983 187.064 134.06C187.064 134.137 185.142 134.188 182.809 134.188C179.169 134.188 178.58 134.137 178.708 133.804C179.195 132.548 182.707 121.449 182.707 121.167C182.707 120.5 182.937 120.936 183.348 122.32Z" fill="black"/>
<path d="M36.5989 130.779V146.62H47.8774H59.1559V143.596V140.596H51.7223H44.2888V127.78V114.964H40.4438H36.5989V130.779Z" fill="black"/>
<path d="M97.349 130.779V146.62L109.448 146.569L121.572 146.518L121.649 143.57L121.726 140.596H113.626H105.552V137.264V133.932H112.985H120.419V130.728V127.498L112.985 127.575L105.552 127.652V124.243V120.859L111.652 120.833C114.984 120.833 118.496 120.833 119.47 120.859L121.188 120.885V117.937V114.964H109.268H97.349V130.779Z" fill="black"/>
<path d="M126.109 130.753L126.186 146.543L129.595 146.569L133.004 146.62L132.927 134.265C132.876 127.498 132.927 121.987 133.056 122.064C133.158 122.115 133.235 122.295 133.235 122.474C133.235 122.91 140.079 146.236 140.259 146.415C140.31 146.466 142.053 146.518 144.129 146.518L147.923 146.543L148.794 143.519C149.281 141.827 150.435 137.982 151.332 134.957C152.255 131.933 153.562 127.601 154.203 125.371L155.408 121.295L155.484 133.958L155.536 146.62L158.945 146.569L162.328 146.518L162.405 130.728L162.457 114.964H156.715H150.973L150.717 115.912C150.589 116.45 149.871 118.834 149.128 121.244C147.692 125.909 144.949 135.367 144.642 136.623C144.411 137.623 144.667 138.366 140.899 125.652L137.721 114.964H131.902H126.058L126.109 130.753Z" fill="black"/>
</svg>
